<svg width="98" height="97" viewBox="0 0 98 97" xmlns="http://www.w3.org/2000/svg">
    <g fill="none" fill-rule="evenodd">
        <path d="m49 7.829 10.114-5.87c2.103-1.222 5.58-1.284 7.725-.141l3.822 2.034c2.144 1.14 3.9 4.075 3.9 6.517v2.588c0 2.446 1.93 4.916 4.287 5.493l6.172 1.508c2.356.577 4.289 3.046 4.289 5.492v1.682c0 2.443.974 6.18 2.168 8.31l4.625 8.237c1.194 2.126 1.197 5.608.011 7.74L89.46 63.355c-1.186 2.132-2.156 5.875-2.156 8.318v2.21c0 2.442-1.907 5.01-4.234 5.7l-2.265.674c-2.327.693-4.23 2.929-4.23 4.972 0 2.04-1.589 4.913-3.527 6.381l-3.79 2.87c-1.938 1.468-5.38 1.96-7.648 1.09L49 90.74" fill="#7688FF"/>
        <path stroke="#161F31" stroke-width="2" d="M49.5 91V8M90 32H77.35L68 23M77 32l-6 8M88 67H76.46L67 58M76 67l-7 8"/>
        <path d="m49 7.829 10.114-5.87c2.103-1.222 5.58-1.284 7.725-.141l3.822 2.034c2.144 1.14 3.9 4.075 3.9 6.517v2.588c0 2.446 1.93 4.916 4.287 5.493l6.172 1.508c2.356.577 4.289 3.046 4.289 5.492v1.682c0 2.443.974 6.18 2.168 8.31l4.625 8.237c1.194 2.126 1.197 5.608.011 7.74L89.46 63.355c-1.186 2.132-2.156 5.875-2.156 8.318v2.21c0 2.442-1.907 5.01-4.234 5.7l-2.265.674c-2.327.693-4.23 2.929-4.23 4.972 0 2.04-1.589 4.913-3.527 6.381l-3.79 2.87c-1.938 1.468-5.38 1.96-7.648 1.09L49 90.74M49 7.829l-10.114-5.87c-2.103-1.222-5.58-1.284-7.725-.141l-3.822 2.034c-2.144 1.14-3.9 4.075-3.9 6.517v2.588c0 2.446-1.93 4.916-4.287 5.493l-6.172 1.508c-2.356.577-4.289 3.046-4.289 5.492v1.682c0 2.443-.974 6.18-2.168 8.31l-4.625 8.237c-1.194 2.126-1.197 5.608-.011 7.74L8.54 63.355c1.186 2.132 2.156 5.875 2.156 8.318v2.21c0 2.442 1.907 5.01 4.234 5.7l2.265.674c2.327.693 4.23 2.929 4.23 4.972 0 2.04 1.589 4.913 3.527 6.381l3.79 2.87c1.938 1.468 5.38 1.96 7.648 1.09L49 90.74" stroke="#161F31" stroke-width="2" stroke-linecap="round"/>
        <path stroke="#161F31" stroke-width="2" d="M9 32h12.65L31 23M21 32l6 8M11 67h11.54L32 58M22 67l7 8"/>
    </g>
</svg>
