<svg width="120" height="96" viewBox="0 0 120 96" xmlns="http://www.w3.org/2000/svg">
    <g fill="none" fill-rule="evenodd">
        <path d="M58.406 42.832 1.366 23.425c-.48-.163-.49-.727-.014-.902L59.474 1.191a3.233 3.233 0 0 1 2.12-.024l57.04 19.407c.48.166.49.73.014.902L60.526 42.808a3.218 3.218 0 0 1-2.12.024z" fill="#7688FF"/>
        <path d="M58.406 42.832 1.366 23.425c-.48-.163-.49-.727-.014-.902L59.474 1.191a3.233 3.233 0 0 1 2.12-.024l57.04 19.407c.48.166.49.73.014.902L60.526 42.808a3.218 3.218 0 0 1-2.12.024zM34 86.296l24.158 8.53c.678.24 1.437.23 2.108-.025L86 85M17 45.791l41.045 14.04c.68.232 1.441.225 2.114-.023L103 44M26 66.542 58.601 77.83c.68.236 1.44.227 2.112-.022L95 65" stroke="#161F31" stroke-width="2"/>
    </g>
</svg>
