<svg width="101" height="96" viewBox="0 0 101 96" xmlns="http://www.w3.org/2000/svg">
    <g fill="none" fill-rule="evenodd">
        <path fill="#161F31" d="M25 52h-4.567L18 62h3.398zM24.385 38.307a2.847 2.847 0 1 0-5.693 0 2.848 2.848 0 0 0 2.846 2.85 2.848 2.848 0 0 0 2.847-2.85z"/>
        <path d="M32.308 1c-5.948 0-10.77 4.83-10.77 10.787v7.705" stroke="#161F31" stroke-width="2"/>
        <path d="M67.692 1v21.574c0 5.957 4.822 10.787 10.77 10.787H100" fill="#7688FF"/>
        <path d="M67.692 1v21.574c0 5.957 4.822 10.787 10.77 10.787H100" stroke="#161F31" stroke-width="2"/>
        <path d="M32.308 1H69.23L100 31.82v52.393C100 90.171 95.178 95 89.23 95H32.309c-5.948 0-10.77-4.83-10.77-10.787V78.05" stroke="#161F31" stroke-width="2"/>
        <path d="M44.615 47.23a6.157 6.157 0 0 1-6.153-6.164V31.82a6.157 6.157 0 0 0-6.154-6.164M44.615 47.23a6.157 6.157 0 0 0-6.153 6.163v9.246a6.157 6.157 0 0 1-6.154 6.164M0 47.23c3.4 0 6.154 2.758 6.154 6.163v9.246a6.157 6.157 0 0 0 6.154 6.164M0 47.23c3.4 0 6.154-2.759 6.154-6.164V31.82a6.157 6.157 0 0 1 6.154-6.164" stroke="#161F31" stroke-width="2"/>
    </g>
</svg>
