<svg width="84" height="96" viewBox="0 0 84 96" xmlns="http://www.w3.org/2000/svg">
    <g fill="none" fill-rule="evenodd">
        <path d="M36.643 1c19.685 0 35.643 12.451 35.643 27.808 0 4.977-1.677 9.647-4.611 13.689l12.33 9.05C81.853 52.972 83 54.95 83 57.138 83 61.482 78.488 65 72.921 65c-2.74 0-5.224-.853-7.042-2.238l-12.692-9.318c-4.943 2.025-10.574 3.171-16.544 3.171C16.958 56.615 1 44.165 1 28.808S16.958 1 36.643 1zM36 15C26.611 15 19 21.043 19 28.5S26.612 42 36.001 42C45.388 42 53 35.957 53 28.5S45.388 15 36.001 15z" fill="#7688FF"/>
        <path d="M53 28.5C53 35.957 45.388 42 36.001 42 26.611 42 19 35.957 19 28.5S26.612 15 36.001 15C45.388 15 53 21.043 53 28.5z" stroke="#161F31" stroke-width="2"/>
        <path d="M53.187 53.444c-4.943 2.025-10.574 3.171-16.544 3.171C16.958 56.615 1 44.165 1 28.808S16.958 1 36.643 1c19.685 0 35.643 12.451 35.643 27.808 0 4.977-1.677 9.647-4.611 13.689l12.33 9.05C81.853 52.972 83 54.95 83 57.138 83 61.482 78.488 65 72.921 65c-2.74 0-5.224-.853-7.042-2.238l-12.692-9.318z" stroke="#161F31" stroke-width="2"/>
        <path d="M82.112 68.932c.569.982.888 2.072.888 3.22C83 76.484 78.466 80 72.875 80c-2.754 0-5.252-.852-7.079-2.235l-12.754-9.303c-4.966 2.022-10.621 3.164-16.624 3.164C18.451 71.626 3.574 61.371 1 48" stroke="#161F31" stroke-width="2"/>
        <path d="M82.112 83.932c.569.982.888 2.072.888 3.22C83 91.484 78.466 95 72.875 95c-2.754 0-5.252-.852-7.079-2.235l-12.754-9.303c-4.966 2.022-10.621 3.164-16.624 3.164C18.451 86.626 3.574 76.371 1 63" stroke="#161F31" stroke-width="2"/>
    </g>
</svg>
